<svg xmlns="http://www.w3.org/2000/svg" xmlns:xlink="http://www.w3.org/1999/xlink" xmlns:lucid="lucid" width="2210" height="999"><g transform="translate(0 0)" lucid:page-tab-id="HWEp-vi-RSFO"><path d="M0 0h2347.52v1360H0z" fill="#fff"/><path d="M690 693.08l70 56.37-70 56.38-70-56.38zM1450 699.48l70 56.38-70 56.38-70-56.38z" stroke="#fc9432" stroke-width="2" fill-opacity="0"/><path d="M400 140h300v267H400z" stroke="#1071e5" stroke-width="2" fill="#fff"/><path d="M400 177.6h300" stroke="#1071e5" stroke-width="2" fill="none"/><use xlink:href="#a" transform="matrix(1,0,0,1,408,148) translate(97.625 14.6)"/><use xlink:href="#b" transform="matrix(1,0,0,1,412,185.6) translate(0 67.39999999999999)"/><use xlink:href="#c" transform="matrix(1,0,0,1,412,185.6) translate(126.95 67.39999999999999)"/><use xlink:href="#d" transform="matrix(1,0,0,1,412,185.6) translate(0 89)"/><use xlink:href="#e" transform="matrix(1,0,0,1,412,185.6) translate(0 110.6)"/><use xlink:href="#f" transform="matrix(1,0,0,1,412,185.6) translate(0 132.20000000000002)"/><use xlink:href="#g" transform="matrix(1,0,0,1,412,185.6) translate(0 153.8)"/><path d="M900 132.33h300v295H900z" stroke="#cc4e00" stroke-width="2" fill="#fff"/><path d="M900 169.93h300" stroke="#cc4e00" stroke-width="2" fill="none"/><use xlink:href="#h" transform="matrix(1,0,0,1,908,140.33) translate(113.05 14.6)"/><use xlink:href="#i" transform="matrix(1,0,0,1,912,177.93) translate(0 81.4)"/><use xlink:href="#c" transform="matrix(1,0,0,1,912,177.93) translate(168.95 81.4)"/><use xlink:href="#j" transform="matrix(1,0,0,1,912,177.93) translate(0 103)"/><use xlink:href="#k" transform="matrix(1,0,0,1,912,177.93) translate(169.9 103)"/><use xlink:href="#l" transform="matrix(1,0,0,1,912,177.93) translate(198.9 103)"/><use xlink:href="#m" transform="matrix(1,0,0,1,912,177.93) translate(0 124.60000000000001)"/><use xlink:href="#k" transform="matrix(1,0,0,1,912,177.93) translate(168.8 124.60000000000001)"/><use xlink:href="#l" transform="matrix(1,0,0,1,912,177.93) translate(197.8 124.60000000000001)"/><use xlink:href="#n" transform="matrix(1,0,0,1,912,177.93) translate(0 146.20000000000002)"/><use xlink:href="#o" transform="matrix(1,0,0,1,912,177.93) translate(0 167.8)"/><path d="M220 720h240v59H220z" stroke="#54c45e" stroke-width="2" fill="#fff"/><use xlink:href="#p" transform="matrix(1,0,0,1,228,728) translate(77.07499999999999 25.1)"/><path d="M620 48a8 8 0 0 1 8-8h836.75a8 8 0 0 1 8 8v25.16a8 8 0 0 1-8 8H628a8 8 0 0 1-8-8z" stroke="#000" stroke-opacity="0" stroke-width="2" fill="#fff" fill-opacity="0"/><use xlink:href="#q" transform="matrix(1,0,0,1,624,43.99999999999999) translate(226.7396296296296 23.657777777777778)"/><use xlink:href="#r" transform="matrix(1,0,0,1,624,43.99999999999999) translate(348.8914814814815 23.657777777777778)"/><use xlink:href="#s" transform="matrix(1,0,0,1,624,43.99999999999999) translate(472.3544444444444 23.657777777777778)"/><use xlink:href="#t" transform="matrix(1,0,0,1,624,43.99999999999999) translate(488.3062962962963 23.657777777777778)"/><path d="M896.48 79.8h309.36M896.5 79.8h-1.02M1205.82 79.8h1.02" stroke="#a9afb8" stroke-width="2" fill="none"/><path d="M620 89.16a8 8 0 0 1 8-8h837.7a8 8 0 0 1 8 8V92a8 8 0 0 1-8 8H628a8 8 0 0 1-8-8z" stroke="#000" stroke-opacity="0" stroke-width="2" fill="#fff" fill-opacity="0"/><use xlink:href="#u" transform="matrix(1,0,0,1,624.0000000000005,85.15522395689881) translate(359.1762551440329 14.917037037037037)"/><use xlink:href="#v" transform="matrix(1,0,0,1,624.0000000000005,85.15522395689881) translate(416.0274897119341 14.917037037037037)"/><use xlink:href="#w" transform="matrix(1,0,0,1,624.0000000000005,85.15522395689881) translate(441.4788271604938 14.917037037037037)"/><path d="M1397.5 133.5h300v280h-300z" stroke="#54c45e" stroke-width="2" fill="#fff"/><path d="M1397.5 171.1h300" stroke="#54c45e" stroke-width="2" fill="none"/><use xlink:href="#p" transform="matrix(1,0,0,1,1405.4904197561348,141.5) translate(107.07499999999999 14.6)"/><use xlink:href="#x" transform="matrix(1,0,0,1,1409.4904197561348,179.1) translate(0 41.50000000000001)"/><use xlink:href="#c" transform="matrix(1,0,0,1,1409.4904197561348,179.1) translate(152.75 41.50000000000001)"/><use xlink:href="#d" transform="matrix(1,0,0,1,1409.4904197561348,179.1) translate(0 63.10000000000001)"/><use xlink:href="#y" transform="matrix(1,0,0,1,1409.4904197561348,179.1) translate(0 84.70000000000002)"/><use xlink:href="#z" transform="matrix(1,0,0,1,1409.4904197561348,179.1) translate(0 106.30000000000003)"/><use xlink:href="#A" transform="matrix(1,0,0,1,1409.4904197561348,179.1) translate(0 127.90000000000002)"/><use xlink:href="#B" transform="matrix(1,0,0,1,1409.4904197561348,179.1) translate(0 149.50000000000003)"/><use xlink:href="#C" transform="matrix(1,0,0,1,1409.4904197561348,179.1) translate(0 171.1)"/><use xlink:href="#D" transform="matrix(1,0,0,1,1409.4904197561348,179.1) translate(57.95 171.1)"/><use xlink:href="#E" transform="matrix(1,0,0,1,1409.4904197561348,179.1) translate(0 192.70000000000002)"/><path d="M781.02 274H701.5v-1h79.52zm117.48-4.9h-79.52v-1h79.52z" stroke="#d916a8" stroke-width=".05" fill="#d916a8"/><path d="M701.5 274h-.5v-1h.5z" fill="#d916a8"/><path d="M701.54 274.02h-.56v-1.04h.56zm-.5-1v.96h.45v-.96z" stroke="#d916a8" stroke-width=".05" fill="#d916a8"/><path d="M899 269.1h-.5v-1h.5z" fill="#d916a8"/><path d="M899.02 269.13h-.56v-1.05h.56zm-.5-1v.95h.46v-.95z" stroke="#d916a8" stroke-width=".05" fill="#d916a8"/><use xlink:href="#F" transform="matrix(1,0,0,1,781.025,260.25081314878895) translate(0 14.4)"/><use xlink:href="#G" transform="matrix(1,0,0,1,781.025,260.25081314878895) translate(17.950000000000003 14.4)"/><use xlink:href="#H" transform="matrix(1,0,0,1,781.025,260.25081314878895) translate(27.950000000000003 14.4)"/><path d="M1396 273v1h-78.28v-1zm-194.5-3.9v-1h78.27v1z" stroke="#d916a8" stroke-width=".05" fill="#d916a8"/><path d="M1201.5 269.1h-.5v-1h.5z" fill="#d916a8"/><path d="M1201.54 269.13h-.57v-1.05h.57zm-.5-1v.95h.45v-.95z" stroke="#d916a8" stroke-width=".05" fill="#d916a8"/><path d="M1396.5 274h-.52v-1h.5z" fill="#d916a8"/><path d="M1396.52 274.02h-.57v-1.04h.57zm-.52-1v.96h.46v-.96z" stroke="#d916a8" stroke-width=".05" fill="#d916a8"/><use xlink:href="#F" transform="matrix(1,0,0,1,1279.7702098780674,260.25081314878906) translate(0 14.4)"/><use xlink:href="#G" transform="matrix(1,0,0,1,1279.7702098780674,260.25081314878906) translate(17.950000000000003 14.4)"/><use xlink:href="#H" transform="matrix(1,0,0,1,1279.7702098780674,260.25081314878906) translate(27.950000000000003 14.4)"/><path d="M620 467.66a8 8 0 0 1 8-8h836.75a8 8 0 0 1 8 8v25.15a8 8 0 0 1-8 8H628a8 8 0 0 1-8-8z" stroke="#000" stroke-opacity="0" stroke-width="2" fill="#fff" fill-opacity="0"/><use xlink:href="#q" transform="matrix(1,0,0,1,624.0000000000005,463.6599999997672) translate(279.0383950617284 23.657777777777778)"/><use xlink:href="#I" transform="matrix(1,0,0,1,624.0000000000005,463.6599999997672) translate(401.19024691358027 23.657777777777778)"/><path d="M896.48 499.47h309.36M896.5 499.47h-1.02M1205.82 499.47h1.02" stroke="#a9afb8" stroke-width="2" fill="none"/><path d="M620 508.8a8 8 0 0 1 8-8h837.7a8 8 0 0 1 8 8v2.86a8 8 0 0 1-8 8H628a8 8 0 0 1-8-8z" stroke="#000" stroke-opacity="0" stroke-width="2" fill="#fff" fill-opacity="0"/><use xlink:href="#u" transform="matrix(1,0,0,1,624.0000000000009,504.81522395666593) translate(359.1762551440329 14.917037037037037)"/><use xlink:href="#v" transform="matrix(1,0,0,1,624.0000000000009,504.81522395666593) translate(416.0274897119341 14.917037037037037)"/><use xlink:href="#w" transform="matrix(1,0,0,1,624.0000000000009,504.81522395666593) translate(441.4788271604938 14.917037037037037)"/><path d="M930 720h240v59H930z" stroke="#54c45e" stroke-width="2" fill="#fff"/><use xlink:href="#J" transform="matrix(1,0,0,1,938,728) translate(73.07499999999999 25.1)"/><path d="M1730 720h240v59h-240z" stroke="#54c45e" stroke-width="2" fill="#fff"/><use xlink:href="#a" transform="matrix(1,0,0,1,1738,728) translate(67.625 25.1)"/><path d="M570 719h240v60H570z" fill="none"/><use xlink:href="#K" transform="matrix(1,0,0,1,570,719) translate(88.575 33.6)"/><path d="M1407.5 725.86h85v60h-85z" fill="none"/><use xlink:href="#L" transform="matrix(1,0,0,1,1407.5,725.8605100280024) translate(15.5 14.4)"/><use xlink:href="#M" transform="matrix(1,0,0,1,1407.5,725.8605100280024) translate(50.5 14.4)"/><use xlink:href="#N" transform="matrix(1,0,0,1,1407.5,725.8605100280024) translate(0.5249999999999986 36)"/><use xlink:href="#O" transform="matrix(1,0,0,1,1407.5,725.8605100280024) translate(32.5 57.6)"/><path d="M461.5 749.63h156.63" stroke="#e81313" fill="none"/><path d="M461.5 750.13h-.5v-1h.5zM618.4 749.45l.85.68h-1.13v-1h.68z" stroke="#e81313" stroke-width=".05" fill="#e81313"/><path d="M762.1 749.45h83.17a.02.02 0 0 1 .03.03.02.02 0 0 0 .02.02h83.18" stroke="#e81313" fill="none"/><path d="M762.1 749.95h-1.13l.62-.5-.63-.5h1.14zM929 750h-.5v-1h.5z" stroke="#e81313" stroke-width=".05" fill="#e81313"/><path d="M1171.5 749.5h202.05a10 10 0 0 1 10 10" stroke="#e81313" fill="none"/><path d="M1171.5 750h-.5v-1h.5zM1384.05 760.4l-1-.8v-.1h1z" stroke="#e81313" stroke-width=".05" fill="#e81313"/><path d="M1510.38 746.43h218.12" stroke="#e81313" fill="none"/><path stroke="#e81313" stroke-width=".05" fill="#e81313"/><path d="M1729 746.93h-.5v-1h.5z" stroke="#e81313" stroke-width=".05" fill="#e81313"/><path d="M570 650h240v60H570z" stroke="#000" stroke-opacity="0" stroke-width="2" fill="#fff" fill-opacity="0"/><use xlink:href="#P" transform="matrix(1,0,0,1,575,655) translate(96.025 28.6)"/><use xlink:href="#Q" transform="matrix(1,0,0,1,575,655) translate(111.025 28.6)"/><use xlink:href="#R" transform="matrix(1,0,0,1,575,655) translate(121.025 28.6)"/><path d="M1330 650h240v60h-240z" stroke="#000" stroke-opacity="0" stroke-width="2" fill="#fff" fill-opacity="0"/><use xlink:href="#S" transform="matrix(1,0,0,1,1335,655) translate(96.025 28.6)"/><use xlink:href="#T" transform="matrix(1,0,0,1,1335,655) translate(111.025 28.6)"/><use xlink:href="#U" transform="matrix(1,0,0,1,1335,655) translate(121.025 28.6)"/><path d="M176.25 600c13.12 0 23.75 10.63 23.75 23.75s-10.63 23.75-23.75 23.75H63.75C50.63 647.5 40 636.87 40 623.75S50.63 600 63.75 600z" stroke="#6db1ff" stroke-width="2" fill="#fff"/><use xlink:href="#V" transform="matrix(1,0,0,1,45,605) translate(41.05 22.6)"/><path d="M396.25 600c13.12 0 23.75 10.63 23.75 23.75s-10.63 23.75-23.75 23.75h-112.5c-13.12 0-23.75-10.63-23.75-23.75S270.63 600 283.75 600z" stroke="#6db1ff" stroke-width="2" fill="#fff"/><use xlink:href="#W" transform="matrix(1,0,0,1,265,605) translate(43.074999999999996 22.6)"/><path d="M176.25 838c13.12 0 23.75 10.64 23.75 23.76 0 13.1-10.63 23.75-23.75 23.75H63.75C50.63 885.5 40 874.88 40 861.77 40 848.64 50.63 838 63.75 838z" stroke="#6db1ff" stroke-width="2" fill="#fff"/><use xlink:href="#X" transform="matrix(1,0,0,1,45,843.0074066887173) translate(47.575 22.6)"/><path d="M416.25 840.86c13.12 0 23.75 10.63 23.75 23.75s-10.63 23.76-23.75 23.76h-112.5c-13.12 0-23.75-10.64-23.75-23.75 0-13.1 10.63-23.74 23.75-23.74z" stroke="#6db1ff" stroke-width="2" fill="#fff"/><use xlink:href="#Y" transform="matrix(1,0,0,1,285,845.8574066887173) translate(38.099999999999994 22.6)"/><path d="M340 718.5V691a7.25 7.25 0 0 0-7.25-7.25 7.25 7.25 0 0 1-7.25-7.25V649" stroke="#e81313" fill="none"/><path d="M340.5 719h-1v-.5h1zM326 649h-1v-.5h1z" stroke="#e81313" stroke-width=".05" fill="#e81313"/><path d="M218.5 749.5H192a12 12 0 0 1-12-12V711a12 12 0 0 0-12-12h-38a12 12 0 0 1-12-12v-38" stroke="#e81313" fill="none"/><path d="M219 750h-.5v-1h.5zM118.5 649h-1v-.5h1z" stroke="#e81313" stroke-width=".05" fill="#e81313"/><path d="M286.43 780.5v16a12 12 0 0 1-12 12H132a12 12 0 0 0-12 12v16" stroke="#e81313" fill="none"/><path d="M286.93 780.5h-1v-.5h1zM120.5 837h-1v-.5h1z" stroke="#e81313" stroke-width=".05" fill="#e81313"/><path d="M340 780.5v17.43a12 12 0 0 0 12 12h6.5a12 12 0 0 1 12 12v17.43" stroke="#e81313" fill="none"/><path d="M340.5 780.5h-1v-.5h1zM371 839.86h-1v-.5h1z" stroke="#e81313" stroke-width=".05" fill="#e81313"/><path d="M1306.25 600c13.12 0 23.75 10.63 23.75 23.75s-10.63 23.75-23.75 23.75h-112.5c-13.12 0-23.75-10.63-23.75-23.75s10.63-23.75 23.75-23.75z" stroke="#6db1ff" stroke-width="2" fill="#fff"/><use xlink:href="#Z" transform="matrix(1,0,0,1,1175,605) translate(39.05 22.6)"/><path d="M956.25 600c13.12 0 23.75 10.63 23.75 23.75s-10.63 23.75-23.75 23.75h-112.5c-13.12 0-23.75-10.63-23.75-23.75S830.63 600 843.75 600z" stroke="#6db1ff" stroke-width="2" fill="#fff"/><use xlink:href="#aa" transform="matrix(1,0,0,1,825,605) translate(50.025 22.6)"/><path d="M1096.25 851.42c13.12 0 23.75 10.63 23.75 23.75 0 13.1-10.63 23.75-23.75 23.75h-112.5c-13.12 0-23.75-10.64-23.75-23.75 0-13.12 10.63-23.75 23.75-23.75z" stroke="#6db1ff" stroke-width="2" fill="#fff"/><g><use xlink:href="#ab" transform="matrix(1,0,0,1,965,856.4157894005797) translate(34.099999999999994 23.266666666666666)"/></g><path d="M970.5 718.5v-22.75a12 12 0 0 0-12-12H912a12 12 0 0 1-12-12V649" stroke="#e81313" fill="none"/><path d="M971 719h-1v-.5h1zM900.5 649h-1v-.5h1z" stroke="#e81313" stroke-width=".05" fill="#e81313"/><path d="M1101.52 718.5v-22.75a12 12 0 0 1 12-12H1238a12 12 0 0 0 12-12V649" stroke="#e81313" fill="none"/><path d="M1102.02 719h-1v-.5h1zM1250.5 649h-1v-.5h1z" stroke="#e81313" stroke-width=".05" fill="#e81313"/><path d="M1096.6 780.5v22.7a12 12 0 0 1-12 12H1052a12 12 0 0 0-12 12v22.72" stroke="#e81313" fill="none"/><path d="M1097.1 780.5h-1v-.5h1zM1040.5 850.42h-1v-.52h1z" stroke="#e81313" stroke-width=".05" fill="#e81313"/><path d="M1833.74 611.3c13.12 0 23.75 10.63 23.75 23.75s-10.64 23.75-23.76 23.75h-112.5c-13.12 0-23.75-10.63-23.75-23.75s10.62-23.75 23.74-23.75z" stroke="#6db1ff" stroke-width="2" fill="#fff"/><g><use xlink:href="#ac" transform="matrix(1,0,0,1,1702.4904197561348,616.3018258428916) translate(28.099999999999994 22.6)"/></g><path d="M2106.25 851.42c13.12 0 23.75 10.63 23.75 23.75 0 13.1-10.63 23.75-23.75 23.75h-112.5c-13.12 0-23.75-10.64-23.75-23.75 0-13.12 10.63-23.75 23.75-23.75z" stroke="#6db1ff" stroke-width="2" fill="#fff"/><g><use xlink:href="#W" transform="matrix(1,0,0,1,1975,856.4157894005797) translate(43.074999999999996 22.6)"/></g><path d="M2136.25 611.3c13.12 0 23.75 10.63 23.75 23.75s-10.63 23.75-23.75 23.75h-112.5c-13.12 0-23.75-10.63-23.75-23.75s10.63-23.75 23.75-23.75z" stroke="#6db1ff" stroke-width="2" fill="#fff"/><g><use xlink:href="#ad" transform="matrix(1,0,0,1,2005,616.3018258428916) translate(49.55 22.6)"/></g><path d="M1753.4 835.16c14.7 0 26.6 11.9 26.6 26.6 0 14.7-11.9 26.6-26.6 26.6h-106.8c-14.7 0-26.6-11.9-26.6-26.6 0-14.7 11.9-26.6 26.6-26.6z" stroke="#6db1ff" stroke-width="2" fill="#fff"/><g><use xlink:href="#ae" transform="matrix(1,0,0,1,1625,840.1574066887173) translate(56.525 25.6)"/></g><path d="M1971.5 749.5h6.5a12 12 0 0 0 12-12v-44.7a12 12 0 0 1 12-12h46.7a12 12 0 0 0 12-12v-8.5" stroke="#e81313" fill="none"/><path d="M1971.5 750h-.5v-1h.5zM2061.2 660.32h-1v-.52h1z" stroke="#e81313" stroke-width=".05" fill="#e81313"/><path d="M1700 833.66v-14.58a12 12 0 0 1 12-12h126a12 12 0 0 0 12-12V780.5" stroke="#e81313" fill="none"/><path d="M1700.5 834.16h-1v-.5h1zM1850.5 780.5h-1v-.5h1z" stroke="#e81313" stroke-width=".05" fill="#e81313"/><path d="M1910.07 780.5v22.7a12 12 0 0 0 12 12H2038a12 12 0 0 1 12 12v22.72" stroke="#e81313" fill="none"/><path d="M1910.57 780.5h-1v-.5h1zM2050.5 850.42h-1v-.52h1z" stroke="#e81313" stroke-width=".05" fill="#e81313"/><path d="M1723.48 660.3v17.1a12 12 0 0 0 12 12H1838a12 12 0 0 1 12 12v17.1" stroke="#e81313" fill="none"/><path d="M1723.98 660.32h-1v-.52h1zM1850.5 719h-1v-.5h1z" stroke="#e81313" stroke-width=".05" fill="#e81313"/><path d="M596.25 627.37c13.12 0 23.75 10.63 23.75 23.75s-10.63 23.75-23.75 23.75h-112.5c-13.12 0-23.75-10.63-23.75-23.75s10.63-23.75 23.75-23.75z" stroke="#6db1ff" stroke-width="2" fill="#fff"/><g><use xlink:href="#af" transform="matrix(1,0,0,1,465.0000000000009,632.3686808500909) translate(43.074999999999996 22.6)"/></g><path d="M440 718.5v-9.07a12 12 0 0 1 12-12h66.17a12 12 0 0 0 12-12v-9.06" stroke="#e81313" fill="none"/><path d="M440.5 719h-1v-.5h1zM530.67 676.38h-1v-.5h1z" stroke="#e81313" stroke-width=".05" fill="#e81313"/><path d="M636.25 812.24c13.12 0 23.75 10.63 23.75 23.75 0 13.1-10.63 23.74-23.75 23.74h-112.5C510.63 859.74 500 849.1 500 836c0-13.13 10.63-23.76 23.75-23.76z" stroke="#6db1ff" stroke-width="2" fill="#fff"/><g><use xlink:href="#ag" transform="matrix(1,0,0,1,505,817.2373617001817) translate(37.599999999999994 22.6)"/></g><path d="M419.17 780.5v3.12a12 12 0 0 0 12 12H568a12 12 0 0 1 12 12v3.12" stroke="#e81313" fill="none"/><path d="M419.67 780.5h-1v-.5h1zM580.5 811.24h-1v-.5h1z" stroke="#e81313" stroke-width=".05" fill="#e81313"/><defs><path fill="#333" d="M24-248c93 1 206-16 204 79-1 75-69 88-152 82V0H24v-248zm52 121c47 0 100 7 100-41 0-47-54-39-100-39v80" id="ah"/><path fill="#333" d="M135-150c-39-12-60 13-60 57V0H25l-1-190h47c2 13-1 29 3 40 6-28 27-53 61-41v41" id="ai"/><path fill="#333" d="M110-194c64 0 96 36 96 99 0 64-35 99-97 99-61 0-95-36-95-99 0-62 34-99 96-99zm-1 164c35 0 45-28 45-65 0-40-10-65-43-65-34 0-45 26-45 65 0 36 10 65 43 65" id="aj"/><path fill="#333" d="M88-194c31-1 46 15 58 34l-1-101h50l1 261h-48c-2-10 0-23-3-31C134-8 116 4 84 4 32 4 16-41 15-95c0-56 19-97 73-99zm17 164c33 0 40-30 41-66 1-37-9-64-41-64s-38 30-39 65c0 43 13 65 39 65" id="ak"/><path fill="#333" d="M85 4C-2 5 27-109 22-190h50c7 57-23 150 33 157 60-5 35-97 40-157h50l1 190h-47c-2-12 1-28-3-38-12 25-28 42-61 42" id="al"/><path fill="#333" d="M190-63c-7 42-38 67-86 67-59 0-84-38-90-98-12-110 154-137 174-36l-49 2c-2-19-15-32-35-32-30 0-35 28-38 64-6 74 65 87 74 30" id="am"/><path fill="#333" d="M115-3C79 11 28 4 28-45v-112H4v-33h27l15-45h31v45h36v33H77v99c-1 23 16 31 38 25v30" id="an"/><path fill="#333" d="M137-138c1-29-70-34-71-4 15 46 118 7 119 86 1 83-164 76-172 9l43-7c4 19 20 25 44 25 33 8 57-30 24-41C81-84 22-81 20-136c-2-80 154-74 161-7" id="ao"/><g id="a"><use transform="matrix(0.05,0,0,0.05,0,0)" xlink:href="#ah"/><use transform="matrix(0.05,0,0,0.05,12,0)" xlink:href="#ai"/><use transform="matrix(0.05,0,0,0.05,19,0)" xlink:href="#aj"/><use transform="matrix(0.05,0,0,0.05,29.950000000000003,0)" xlink:href="#ak"/><use transform="matrix(0.05,0,0,0.05,40.900000000000006,0)" xlink:href="#al"/><use transform="matrix(0.05,0,0,0.05,51.85,0)" xlink:href="#am"/><use transform="matrix(0.05,0,0,0.05,61.85,0)" xlink:href="#an"/><use transform="matrix(0.05,0,0,0.05,67.80000000000001,0)" xlink:href="#aj"/><use transform="matrix(0.05,0,0,0.05,78.75000000000001,0)" xlink:href="#ao"/></g><path fill="#333" d="M185-189c-5-48-123-54-124 2 14 75 158 14 163 119 3 78-121 87-175 55-17-10-28-26-33-46l33-7c5 56 141 63 141-1 0-78-155-14-162-118-5-82 145-84 179-34 5 7 8 16 11 25" id="ap"/><path fill="#333" d="M194 0L95-120 63-95V0H30v-248h33v124l119-124h40L117-140 236 0h-42" id="aq"/><path fill="#333" d="M232-93c-1 65-40 97-104 97C67 4 28-28 28-90v-158h33c8 89-33 224 67 224 102 0 64-133 71-224h33v155" id="ar"/><g id="b"><use transform="matrix(0.05,0,0,0.05,0,0)" xlink:href="#ap"/><use transform="matrix(0.05,0,0,0.05,12,0)" xlink:href="#aq"/><use transform="matrix(0.05,0,0,0.05,24,0)" xlink:href="#ar"/><path fill="#333" d="M-.9 1.25h38.75v1.32H-.9z"/></g><path fill="#333" d="M30-248c87 1 191-15 191 75 0 78-77 80-158 76V0H30v-248zm33 125c57 0 124 11 124-50 0-59-68-47-124-48v98" id="as"/><g id="c"><use transform="matrix(0.05,0,0,0.05,0,0)" xlink:href="#as"/><use transform="matrix(0.05,0,0,0.05,12,0)" xlink:href="#aq"/></g><path fill="#333" d="M117-194c89-4 53 116 60 194h-32v-121c0-31-8-49-39-48C34-167 62-67 57 0H25l-1-190h30c1 10-1 24 2 32 11-22 29-35 61-36" id="at"/><path fill="#333" d="M100-194c62-1 85 37 85 99 1 63-27 99-86 99S16-35 15-95c0-66 28-99 85-99zM99-20c44 1 53-31 53-75 0-43-8-75-51-75s-53 32-53 75 10 74 51 75" id="au"/><path fill="#333" d="M210-169c-67 3-38 105-44 169h-31v-121c0-29-5-50-35-48C34-165 62-65 56 0H25l-1-190h30c1 10-1 24 2 32 10-44 99-50 107 0 11-21 27-35 58-36 85-2 47 119 55 194h-31v-121c0-29-5-49-35-48" id="av"/><path fill="#333" d="M115-194c53 0 69 39 70 98 0 66-23 100-70 100C84 3 66-7 56-30L54 0H23l1-261h32v101c10-23 28-34 59-34zm-8 174c40 0 45-34 45-75 0-40-5-75-45-74-42 0-51 32-51 76 0 43 10 73 51 73" id="aw"/><path fill="#333" d="M114-163C36-179 61-72 57 0H25l-1-190h30c1 12-1 29 2 39 6-27 23-49 58-41v29" id="ax"/><path fill="#333" d="M100-194c63 0 86 42 84 106H49c0 40 14 67 53 68 26 1 43-12 49-29l28 8c-11 28-37 45-77 45C44 4 14-33 15-96c1-61 26-98 85-98zm52 81c6-60-76-77-97-28-3 7-6 17-6 28h103" id="ay"/><g id="d"><use transform="matrix(0.05,0,0,0.05,0,0)" xlink:href="#at"/><use transform="matrix(0.05,0,0,0.05,10,0)" xlink:href="#au"/><use transform="matrix(0.05,0,0,0.05,20,0)" xlink:href="#av"/><use transform="matrix(0.05,0,0,0.05,34.95,0)" xlink:href="#aw"/><use transform="matrix(0.05,0,0,0.05,44.95,0)" xlink:href="#ax"/><use transform="matrix(0.05,0,0,0.05,50.900000000000006,0)" xlink:href="#ay"/></g><path fill="#333" d="M85-194c31 0 48 13 60 33l-1-100h32l1 261h-30c-2-10 0-23-3-31C134-8 116 4 85 4 32 4 16-35 15-94c0-66 23-100 70-100zm9 24c-40 0-46 34-46 75 0 40 6 74 45 74 42 0 51-32 51-76 0-42-9-74-50-73" id="az"/><path fill="#333" d="M135-143c-3-34-86-38-87 0 15 53 115 12 119 90S17 21 10-45l28-5c4 36 97 45 98 0-10-56-113-15-118-90-4-57 82-63 122-42 12 7 21 19 24 35" id="aA"/><path fill="#333" d="M96-169c-40 0-48 33-48 73s9 75 48 75c24 0 41-14 43-38l32 2c-6 37-31 61-74 61-59 0-76-41-82-99-10-93 101-131 147-64 4 7 5 14 7 22l-32 3c-4-21-16-35-41-35" id="aB"/><path fill="#333" d="M24-231v-30h32v30H24zM24 0v-190h32V0H24" id="aC"/><path fill="#333" d="M115-194c55 1 70 41 70 98S169 2 115 4C84 4 66-9 55-30l1 105H24l-1-265h31l2 30c10-21 28-34 59-34zm-8 174c40 0 45-34 45-75s-6-73-45-74c-42 0-51 32-51 76 0 43 10 73 51 73" id="aD"/><path fill="#333" d="M100-194c62-1 85 37 85 99 1 63-27 99-86 99S16-35 15-95c0-66 28-99 85-99zM99-20c44 1 53-31 53-75 0-43-8-75-51-75s-53 32-53 75 10 74 51 75zM76-211c8-23 27-35 38-54h36v5l-58 49H76" id="aE"/><g id="e"><use transform="matrix(0.05,0,0,0.05,0,0)" xlink:href="#az"/><use transform="matrix(0.05,0,0,0.05,10,0)" xlink:href="#ay"/><use transform="matrix(0.05,0,0,0.05,20,0)" xlink:href="#aA"/><use transform="matrix(0.05,0,0,0.05,29,0)" xlink:href="#aB"/><use transform="matrix(0.05,0,0,0.05,38,0)" xlink:href="#ax"/><use transform="matrix(0.05,0,0,0.05,43.95,0)" xlink:href="#aC"/><use transform="matrix(0.05,0,0,0.05,47.900000000000006,0)" xlink:href="#aD"/><use transform="matrix(0.05,0,0,0.05,57.900000000000006,0)" xlink:href="#aB"/><use transform="matrix(0.05,0,0,0.05,66.9,0)" xlink:href="#aC"/><use transform="matrix(0.05,0,0,0.05,70.85000000000001,0)" xlink:href="#aE"/><use transform="matrix(0.05,0,0,0.05,80.85000000000001,0)" xlink:href="#at"/></g><g id="f"><use transform="matrix(0.05,0,0,0.05,0,0)" xlink:href="#aD"/><use transform="matrix(0.05,0,0,0.05,10,0)" xlink:href="#ax"/><use transform="matrix(0.05,0,0,0.05,15.949999999999998,0)" xlink:href="#ay"/><use transform="matrix(0.05,0,0,0.05,25.950000000000003,0)" xlink:href="#aB"/><use transform="matrix(0.05,0,0,0.05,34.95,0)" xlink:href="#aC"/><use transform="matrix(0.05,0,0,0.05,38.900000000000006,0)" xlink:href="#au"/></g><path fill="#333" d="M147 0H94L2-248h55l64 206c17-72 42-137 63-206h54" id="aF"/><path fill="#333" d="M185-48c-13 30-37 53-82 52C43 2 14-33 14-96s30-98 90-98c62 0 83 45 84 108H66c0 31 8 55 39 56 18 0 30-7 34-22zm-45-69c5-46-57-63-70-21-2 6-4 13-4 21h74" id="aG"/><path fill="#333" d="M135-194c87-1 58 113 63 194h-50c-7-57 23-157-34-157-59 0-34 97-39 157H25l-1-190h47c2 12-1 28 3 38 12-26 28-41 61-42" id="aH"/><path fill="#333" d="M133-34C117-15 103 5 69 4 32 3 11-16 11-54c-1-60 55-63 116-61 1-26-3-47-28-47-18 1-26 9-28 27l-52-2c7-38 36-58 82-57s74 22 75 68l1 82c-1 14 12 18 25 15v27c-30 8-71 5-69-32zm-48 3c29 0 43-24 42-57-32 0-66-3-65 30 0 17 8 27 23 27" id="aI"/><g id="h"><use transform="matrix(0.05,0,0,0.05,0,0)" xlink:href="#aF"/><use transform="matrix(0.05,0,0,0.05,11,0)" xlink:href="#aG"/><use transform="matrix(0.05,0,0,0.05,21,0)" xlink:href="#aH"/><use transform="matrix(0.05,0,0,0.05,31.950000000000003,0)" xlink:href="#an"/><use transform="matrix(0.05,0,0,0.05,37.900000000000006,0)" xlink:href="#aI"/><use transform="matrix(0.05,0,0,0.05,47.900000000000006,0)" xlink:href="#ao"/></g><path fill="#333" d="M33 0v-248h34V0H33" id="aJ"/><path fill="#333" d="M30-248c118-7 216 8 213 122C240-48 200 0 122 0H30v-248zM63-27c89 8 146-16 146-99s-60-101-146-95v194" id="aK"/><path fill="#333" d="M137 0h-34L2-248h35l83 218 83-218h36" id="aL"/><path fill="#333" d="M59-47c-2 24 18 29 38 22v24C64 9 27 4 27-40v-127H5v-23h24l9-43h21v43h35v23H59v120" id="aM"/><path fill="#333" d="M141-36C126-15 110 5 73 4 37 3 15-17 15-53c-1-64 63-63 125-63 3-35-9-54-41-54-24 1-41 7-42 31l-33-3c5-37 33-52 76-52 45 0 72 20 72 64v82c-1 20 7 32 28 27v20c-31 9-61-2-59-35zM48-53c0 20 12 33 32 33 41-3 63-29 60-74-43 2-92-5-92 41" id="aN"/><g id="i"><use transform="matrix(0.05,0,0,0.05,0,0)" xlink:href="#aJ"/><use transform="matrix(0.05,0,0,0.05,5,0)" xlink:href="#aK"/><use transform="matrix(0.05,0,0,0.05,17.950000000000003,0)" xlink:href="#aL"/><use transform="matrix(0.05,0,0,0.05,28.950000000000003,0)" xlink:href="#ay"/><use transform="matrix(0.05,0,0,0.05,38.95,0)" xlink:href="#at"/><use transform="matrix(0.05,0,0,0.05,48.95,0)" xlink:href="#aM"/><use transform="matrix(0.05,0,0,0.05,53.95,0)" xlink:href="#aN"/><path fill="#333" d="M-.9 1.25h65.75v1.32H-.9z"/></g><path fill="#333" d="M84 4C-5 8 30-112 23-190h32v120c0 31 7 50 39 49 72-2 45-101 50-169h31l1 190h-30c-1-10 1-25-2-33-11 22-28 36-60 37" id="aO"/><g id="j"><use transform="matrix(0.05,0,0,0.05,0,0)" xlink:href="#aJ"/><use transform="matrix(0.05,0,0,0.05,5,0)" xlink:href="#aK"/><use transform="matrix(0.05,0,0,0.05,17.950000000000003,0)" xlink:href="#as"/><use transform="matrix(0.05,0,0,0.05,29.950000000000003,0)" xlink:href="#ax"/><use transform="matrix(0.05,0,0,0.05,35.900000000000006,0)" xlink:href="#au"/><use transform="matrix(0.05,0,0,0.05,45.900000000000006,0)" xlink:href="#az"/><use transform="matrix(0.05,0,0,0.05,55.900000000000006,0)" xlink:href="#aO"/><use transform="matrix(0.05,0,0,0.05,65.9,0)" xlink:href="#aB"/><use transform="matrix(0.05,0,0,0.05,74.9,0)" xlink:href="#aM"/><use transform="matrix(0.05,0,0,0.05,79.9,0)" xlink:href="#au"/><path fill="#333" d="M-.9 1.25h91.7v1.32H-.9z"/></g><g id="k"><use transform="matrix(0.05,0,0,0.05,0,0)" xlink:href="#as"/><use transform="matrix(0.05,0,0,0.05,12,0)" xlink:href="#aq"/></g><path fill="#333" d="M63-220v92h138v28H63V0H30v-248h175v28H63" id="aP"/><g id="l"><use transform="matrix(0.05,0,0,0.05,0,0)" xlink:href="#aP"/><use transform="matrix(0.05,0,0,0.05,10.950000000000001,0)" xlink:href="#aq"/></g><path fill="#333" d="M212-179c-10-28-35-45-73-45-59 0-87 40-87 99 0 60 29 101 89 101 43 0 62-24 78-52l27 14C228-24 195 4 139 4 59 4 22-46 18-125c-6-104 99-153 187-111 19 9 31 26 39 46" id="aQ"/><path fill="#333" d="M24 0v-261h32V0H24" id="aR"/><g id="m"><use transform="matrix(0.05,0,0,0.05,0,0)" xlink:href="#aJ"/><use transform="matrix(0.05,0,0,0.05,5,0)" xlink:href="#aK"/><use transform="matrix(0.05,0,0,0.05,17.950000000000003,0)" xlink:href="#aQ"/><use transform="matrix(0.05,0,0,0.05,30.900000000000006,0)" xlink:href="#aR"/><use transform="matrix(0.05,0,0,0.05,34.85000000000001,0)" xlink:href="#aC"/><use transform="matrix(0.05,0,0,0.05,38.80000000000001,0)" xlink:href="#ay"/><use transform="matrix(0.05,0,0,0.05,48.80000000000001,0)" xlink:href="#at"/><use transform="matrix(0.05,0,0,0.05,58.80000000000001,0)" xlink:href="#aM"/><use transform="matrix(0.05,0,0,0.05,63.80000000000001,0)" xlink:href="#ay"/><path fill="#333" d="M-.9 1.25h75.6v1.32H-.9z"/></g><g id="n"><use transform="matrix(0.05,0,0,0.05,0,0)" xlink:href="#aQ"/><use transform="matrix(0.05,0,0,0.05,12.950000000000001,0)" xlink:href="#aN"/><use transform="matrix(0.05,0,0,0.05,22.950000000000003,0)" xlink:href="#at"/><use transform="matrix(0.05,0,0,0.05,32.95,0)" xlink:href="#aM"/><use transform="matrix(0.05,0,0,0.05,37.95,0)" xlink:href="#aC"/><use transform="matrix(0.05,0,0,0.05,41.900000000000006,0)" xlink:href="#az"/><use transform="matrix(0.05,0,0,0.05,51.900000000000006,0)" xlink:href="#aN"/><use transform="matrix(0.05,0,0,0.05,61.900000000000006,0)" xlink:href="#az"/></g><path fill="#333" d="M106-169C34-169 62-67 57 0H25v-261h32l-1 103c12-21 28-36 61-36 89 0 53 116 60 194h-32v-121c2-32-8-49-39-48" id="aS"/><g id="o"><use transform="matrix(0.05,0,0,0.05,0,0)" xlink:href="#aP"/><use transform="matrix(0.05,0,0,0.05,10.950000000000001,0)" xlink:href="#ay"/><use transform="matrix(0.05,0,0,0.05,20.950000000000003,0)" xlink:href="#aB"/><use transform="matrix(0.05,0,0,0.05,29.950000000000003,0)" xlink:href="#aS"/><use transform="matrix(0.05,0,0,0.05,39.95,0)" xlink:href="#aN"/></g><path fill="#333" d="M67-125c0 53 21 87 73 88 37 1 54-22 65-47l45 17C233-25 199 4 140 4 58 4 20-42 15-125 8-235 124-281 211-232c18 10 29 29 36 50l-46 12c-8-25-30-41-62-41-52 0-71 34-72 86" id="aT"/><path fill="#333" d="M25 0v-261h50V0H25" id="aU"/><path fill="#333" d="M25-224v-37h50v37H25zM25 0v-190h50V0H25" id="aV"/><g id="p"><use transform="matrix(0.05,0,0,0.05,0,0)" xlink:href="#aT"/><use transform="matrix(0.05,0,0,0.05,12.950000000000001,0)" xlink:href="#aU"/><use transform="matrix(0.05,0,0,0.05,17.950000000000003,0)" xlink:href="#aV"/><use transform="matrix(0.05,0,0,0.05,22.950000000000003,0)" xlink:href="#aG"/><use transform="matrix(0.05,0,0,0.05,32.95,0)" xlink:href="#aH"/><use transform="matrix(0.05,0,0,0.05,43.900000000000006,0)" xlink:href="#an"/><use transform="matrix(0.05,0,0,0.05,49.85000000000001,0)" xlink:href="#aG"/><use transform="matrix(0.05,0,0,0.05,59.85,0)" xlink:href="#ao"/></g><path fill="#fe7070" d="M230 0l2-204L168 0h-37L68-204 70 0H24v-248h70l56 185 57-185h69V0h-46" id="aW"/><path fill="#fe7070" d="M140-251c80 0 125 45 125 126S219 4 139 4C58 4 15-44 15-125s44-126 125-126zm-1 214c52 0 73-35 73-88 0-50-21-86-72-86-52 0-73 35-73 86s22 88 72 88" id="aX"/><path fill="#fe7070" d="M24-248c120-7 223 5 221 122C244-46 201 0 124 0H24v-248zM76-40c74 7 117-18 117-86 0-67-45-88-117-82v168" id="aY"/><path fill="#fe7070" d="M24 0v-248h195v40H76v63h132v40H76v65h150V0H24" id="aZ"/><path fill="#fe7070" d="M24 0v-248h52v208h133V0H24" id="ba"/><g id="q"><use transform="matrix(0.0728395061728395,0,0,0.0728395061728395,0,0)" xlink:href="#aW"/><use transform="matrix(0.0728395061728395,0,0,0.0728395061728395,21.77901234567901,0)" xlink:href="#aX"/><use transform="matrix(0.0728395061728395,0,0,0.0728395061728395,42.17407407407407,0)" xlink:href="#aY"/><use transform="matrix(0.0728395061728395,0,0,0.0728395061728395,61.0395061728395,0)" xlink:href="#aZ"/><use transform="matrix(0.0728395061728395,0,0,0.0728395061728395,78.52098765432098,0)" xlink:href="#ba"/><use transform="matrix(0.0728395061728395,0,0,0.0728395061728395,94.47283950617283,0)" xlink:href="#aX"/></g><path fill="#fe7070" d="M175 0L67-191c6 58 2 128 3 191H24v-248h59L193-55c-6-58-2-129-3-193h46V0h-61" id="bb"/><path fill="#fe7070" d="M136-208V0H84v-208H4v-40h212v40h-80" id="bc"/><path fill="#fe7070" d="M24 0v-248h52V0H24" id="bd"/><path fill="#fe7070" d="M199 0l-22-63H83L61 0H9l90-248h61L250 0h-51zm-33-102l-36-108c-10 38-24 72-36 108h72" id="be"/><g id="r"><use transform="matrix(0.0728395061728395,0,0,0.0728395061728395,0,0)" xlink:href="#aZ"/><use transform="matrix(0.0728395061728395,0,0,0.0728395061728395,17.48148148148148,0)" xlink:href="#bb"/><use transform="matrix(0.0728395061728395,0,0,0.0728395061728395,36.34691358024691,0)" xlink:href="#bc"/><use transform="matrix(0.0728395061728395,0,0,0.0728395061728395,52.29876543209876,0)" xlink:href="#bd"/><use transform="matrix(0.0728395061728395,0,0,0.0728395061728395,59.582716049382704,0)" xlink:href="#aY"/><use transform="matrix(0.0728395061728395,0,0,0.0728395061728395,78.44814814814814,0)" xlink:href="#be"/><use transform="matrix(0.0728395061728395,0,0,0.0728395061728395,97.31358024691357,0)" xlink:href="#aY"/></g><path fill="#fe7070" d="M14-72v-43h91v43H14" id="bf"/><use transform="matrix(0.0728395061728395,0,0,0.0728395061728395,0,0)" xlink:href="#bf" id="s"/><path fill="#fe7070" d="M240-174c0 40-23 61-54 70L253 0h-59l-57-94H76V0H24v-248c93 4 217-23 216 74zM76-134c48-2 112 12 112-38 0-48-66-32-112-35v73" id="bg"/><path fill="#fe7070" d="M67-125c0 53 21 87 73 88 37 1 54-22 65-47l45 17C233-25 199 4 140 4 58 4 20-42 15-125 8-235 124-281 211-232c18 10 29 29 36 50l-46 12c-8-25-30-41-62-41-52 0-71 34-72 86" id="bh"/><path fill="#fe7070" d="M110-269v-5l44-45h46v8l-60 42h-30zm30 18c80 0 125 45 125 126S219 4 139 4C58 4 15-44 15-125s44-126 125-126zm-1 214c52 0 73-35 73-88 0-50-21-86-72-86-52 0-73 35-73 86s22 88 72 88" id="bi"/><g id="t"><use transform="matrix(0.0728395061728395,0,0,0.0728395061728395,0,0)" xlink:href="#bg"/><use transform="matrix(0.0728395061728395,0,0,0.0728395061728395,18.86543209876543,0)" xlink:href="#aZ"/><use transform="matrix(0.0728395061728395,0,0,0.0728395061728395,36.34691358024691,0)" xlink:href="#ba"/><use transform="matrix(0.0728395061728395,0,0,0.0728395061728395,52.29876543209876,0)" xlink:href="#be"/><use transform="matrix(0.0728395061728395,0,0,0.0728395061728395,71.16419753086419,0)" xlink:href="#bh"/><use transform="matrix(0.0728395061728395,0,0,0.0728395061728395,90.02962962962962,0)" xlink:href="#bd"/><use transform="matrix(0.0728395061728395,0,0,0.0728395061728395,97.31358024691357,0)" xlink:href="#bi"/><use transform="matrix(0.0728395061728395,0,0,0.0728395061728395,117.70864197530864,0)" xlink:href="#bb"/></g><path fill="#fe7070" d="M182-130c37 4 62 22 62 59C244 23 116-4 24 0v-248c84 5 203-23 205 63 0 31-19 50-47 55zM76-148c40-3 101 13 101-30 0-44-60-28-101-31v61zm0 110c48-3 116 14 116-37 0-48-69-32-116-35v72" id="bj"/><path fill="#fe7070" d="M169-182c-1-43-94-46-97-3 18 66 151 10 154 114 3 95-165 93-204 36-6-8-10-19-12-30l50-8c3 46 112 56 116 5-17-69-150-10-154-114-4-87 153-88 188-35 5 8 8 18 10 28" id="bk"/><g id="u"><use transform="matrix(0.04248971193415638,0,0,0.04248971193415638,0,0)" xlink:href="#bj"/><use transform="matrix(0.04248971193415638,0,0,0.04248971193415638,11.004835390946502,0)" xlink:href="#be"/><use transform="matrix(0.04248971193415638,0,0,0.04248971193415638,22.009670781893004,0)" xlink:href="#bk"/><use transform="matrix(0.04248971193415638,0,0,0.04248971193415638,32.20720164609053,0)" xlink:href="#aZ"/><use transform="matrix(0.04248971193415638,0,0,0.04248971193415638,42.40473251028806,0)" xlink:href="#bk"/></g><g id="v"><use transform="matrix(0.04248971193415638,0,0,0.04248971193415638,0,0)" xlink:href="#aY"/><use transform="matrix(0.04248971193415638,0,0,0.04248971193415638,11.004835390946502,0)" xlink:href="#aZ"/></g><g id="w"><use transform="matrix(0.04248971193415638,0,0,0.04248971193415638,0,0)" xlink:href="#aY"/><use transform="matrix(0.04248971193415638,0,0,0.04248971193415638,11.004835390946502,0)" xlink:href="#be"/><use transform="matrix(0.04248971193415638,0,0,0.04248971193415638,20.86244855967078,0)" xlink:href="#bc"/><use transform="matrix(0.04248971193415638,0,0,0.04248971193415638,29.87026748971193,0)" xlink:href="#aX"/><use transform="matrix(0.04248971193415638,0,0,0.04248971193415638,41.76738683127572,0)" xlink:href="#bk"/></g><g id="x"><use transform="matrix(0.05,0,0,0.05,0,0)" xlink:href="#aR"/><use transform="matrix(0.05,0,0,0.05,3.95,0)" xlink:href="#aK"/><use transform="matrix(0.05,0,0,0.05,16.900000000000002,0)" xlink:href="#aQ"/><use transform="matrix(0.05,0,0,0.05,29.85,0)" xlink:href="#aR"/><use transform="matrix(0.05,0,0,0.05,33.800000000000004,0)" xlink:href="#aC"/><use transform="matrix(0.05,0,0,0.05,37.75000000000001,0)" xlink:href="#ay"/><use transform="matrix(0.05,0,0,0.05,47.75000000000001,0)" xlink:href="#at"/><use transform="matrix(0.05,0,0,0.05,57.75,0)" xlink:href="#aM"/><use transform="matrix(0.05,0,0,0.05,62.75,0)" xlink:href="#ay"/><path fill="#333" d="M-.9 1.25h74.55v1.32H-.9z"/></g><g id="y"><use transform="matrix(0.05,0,0,0.05,0,0)" xlink:href="#aN"/><use transform="matrix(0.05,0,0,0.05,10,0)" xlink:href="#aD"/><use transform="matrix(0.05,0,0,0.05,20,0)" xlink:href="#ay"/><use transform="matrix(0.05,0,0,0.05,30,0)" xlink:href="#aR"/><use transform="matrix(0.05,0,0,0.05,33.95,0)" xlink:href="#aR"/><use transform="matrix(0.05,0,0,0.05,37.900000000000006,0)" xlink:href="#aC"/><use transform="matrix(0.05,0,0,0.05,41.85000000000001,0)" xlink:href="#az"/><use transform="matrix(0.05,0,0,0.05,51.85,0)" xlink:href="#au"/></g><g id="z"><use transform="matrix(0.05,0,0,0.05,0,0)" xlink:href="#ay"/><use transform="matrix(0.05,0,0,0.05,10,0)" xlink:href="#av"/><use transform="matrix(0.05,0,0,0.05,24.950000000000003,0)" xlink:href="#aN"/><use transform="matrix(0.05,0,0,0.05,34.95,0)" xlink:href="#aC"/><use transform="matrix(0.05,0,0,0.05,38.900000000000006,0)" xlink:href="#aR"/></g><g id="A"><use transform="matrix(0.05,0,0,0.05,0,0)" xlink:href="#az"/><use transform="matrix(0.05,0,0,0.05,10,0)" xlink:href="#aC"/><use transform="matrix(0.05,0,0,0.05,13.949999999999998,0)" xlink:href="#ax"/><use transform="matrix(0.05,0,0,0.05,19.9,0)" xlink:href="#ay"/><use transform="matrix(0.05,0,0,0.05,29.899999999999995,0)" xlink:href="#aB"/><use transform="matrix(0.05,0,0,0.05,38.9,0)" xlink:href="#aB"/><use transform="matrix(0.05,0,0,0.05,47.9,0)" xlink:href="#aC"/><use transform="matrix(0.05,0,0,0.05,51.85,0)" xlink:href="#aE"/><use transform="matrix(0.05,0,0,0.05,61.85,0)" xlink:href="#at"/></g><path fill="#333" d="M100-194c63 0 86 42 84 106H49c0 40 14 67 53 68 26 1 43-12 49-29l28 8c-11 28-37 45-77 45C44 4 14-33 15-96c1-61 26-98 85-98zm52 81c6-60-76-77-97-28-3 7-6 17-6 28h103zm-74-98c8-23 27-35 38-54h36v5l-58 49H78" id="bl"/><path fill="#333" d="M101-234c-31-9-42 10-38 44h38v23H63V0H32v-167H5v-23h27c-7-52 17-82 69-68v24" id="bm"/><g id="B"><use transform="matrix(0.05,0,0,0.05,0,0)" xlink:href="#aM"/><use transform="matrix(0.05,0,0,0.05,5,0)" xlink:href="#ay"/><use transform="matrix(0.05,0,0,0.05,15,0)" xlink:href="#aR"/><use transform="matrix(0.05,0,0,0.05,18.95,0)" xlink:href="#bl"/><use transform="matrix(0.05,0,0,0.05,28.950000000000003,0)" xlink:href="#bm"/><use transform="matrix(0.05,0,0,0.05,33.95,0)" xlink:href="#au"/><use transform="matrix(0.05,0,0,0.05,43.95,0)" xlink:href="#at"/><use transform="matrix(0.05,0,0,0.05,53.95,0)" xlink:href="#au"/></g><path fill="#333" d="M177-190C167-65 218 103 67 71c-23-6-38-20-44-43l32-5c15 47 100 32 89-28v-30C133-14 115 1 83 1 29 1 15-40 15-95c0-56 16-97 71-98 29-1 48 16 59 35 1-10 0-23 2-32h30zM94-22c36 0 50-32 50-73 0-42-14-75-50-75-39 0-46 34-46 75s6 73 46 73" id="bn"/><g id="C"><use transform="matrix(0.05,0,0,0.05,0,0)" xlink:href="#aB"/><use transform="matrix(0.05,0,0,0.05,9,0)" xlink:href="#aE"/><use transform="matrix(0.05,0,0,0.05,19,0)" xlink:href="#az"/><use transform="matrix(0.05,0,0,0.05,29,0)" xlink:href="#aC"/><use transform="matrix(0.05,0,0,0.05,32.95,0)" xlink:href="#bn"/><use transform="matrix(0.05,0,0,0.05,42.95,0)" xlink:href="#au"/></g><g id="D"><use transform="matrix(0.05,0,0,0.05,0,0)" xlink:href="#aD"/><use transform="matrix(0.05,0,0,0.05,10,0)" xlink:href="#au"/><use transform="matrix(0.05,0,0,0.05,20,0)" xlink:href="#aA"/><use transform="matrix(0.05,0,0,0.05,29,0)" xlink:href="#aM"/><use transform="matrix(0.05,0,0,0.05,34,0)" xlink:href="#aN"/><use transform="matrix(0.05,0,0,0.05,44,0)" xlink:href="#aR"/></g><g id="E"><use transform="matrix(0.05,0,0,0.05,0,0)" xlink:href="#aw"/><use transform="matrix(0.05,0,0,0.05,10,0)" xlink:href="#aN"/><use transform="matrix(0.05,0,0,0.05,20,0)" xlink:href="#ax"/><use transform="matrix(0.05,0,0,0.05,25.950000000000003,0)" xlink:href="#ax"/><use transform="matrix(0.05,0,0,0.05,31.899999999999995,0)" xlink:href="#aC"/><use transform="matrix(0.05,0,0,0.05,35.85,0)" xlink:href="#au"/></g><path fill="#333" d="M190 0L58-211 59 0H30v-248h39L202-35l-2-213h31V0h-41" id="bo"/><use transform="matrix(0.05,0,0,0.05,0,0)" xlink:href="#bo" id="F"/><path fill="#333" d="M33-154v-36h34v36H33zM33 0v-36h34V0H33" id="bp"/><use transform="matrix(0.05,0,0,0.05,0,0)" xlink:href="#bp" id="G"/><path fill="#333" d="M27 0v-27h64v-190l-56 39v-29l58-41h29v221h61V0H27" id="bq"/><use transform="matrix(0.05,0,0,0.05,0,0)" xlink:href="#bq" id="H"/><g id="I"><use transform="matrix(0.0728395061728395,0,0,0.0728395061728395,0,0)" xlink:href="#bg"/><use transform="matrix(0.0728395061728395,0,0,0.0728395061728395,18.86543209876543,0)" xlink:href="#aZ"/><use transform="matrix(0.0728395061728395,0,0,0.0728395061728395,36.34691358024691,0)" xlink:href="#ba"/><use transform="matrix(0.0728395061728395,0,0,0.0728395061728395,52.29876543209876,0)" xlink:href="#be"/><use transform="matrix(0.0728395061728395,0,0,0.0728395061728395,71.16419753086419,0)" xlink:href="#bh"/><use transform="matrix(0.0728395061728395,0,0,0.0728395061728395,90.02962962962962,0)" xlink:href="#bd"/><use transform="matrix(0.0728395061728395,0,0,0.0728395061728395,97.31358024691357,0)" xlink:href="#aX"/><use transform="matrix(0.0728395061728395,0,0,0.0728395061728395,117.70864197530864,0)" xlink:href="#bb"/><use transform="matrix(0.0728395061728395,0,0,0.0728395061728395,136.57407407407408,0)" xlink:href="#be"/><use transform="matrix(0.0728395061728395,0,0,0.0728395061728395,155.43950617283951,0)" xlink:href="#ba"/></g><path fill="#333" d="M220-157c-53 9-28 100-34 157h-49v-107c1-27-5-49-29-50C55-147 81-57 75 0H25l-1-190h47c2 12-1 28 3 38 10-53 101-56 108 0 13-22 24-43 59-42 82 1 51 116 57 194h-49v-107c-1-25-5-48-29-50" id="br"/><path fill="#333" d="M135-194c53 0 70 44 70 98 0 56-19 98-73 100-31 1-45-17-59-34 3 33 2 69 2 105H25l-1-265h48c2 10 0 23 3 31 11-24 29-35 60-35zM114-30c33 0 39-31 40-66 0-38-9-64-40-64-56 0-55 130 0 130" id="bs"/><g id="J"><use transform="matrix(0.05,0,0,0.05,0,0)" xlink:href="#aT"/><use transform="matrix(0.05,0,0,0.05,12.950000000000001,0)" xlink:href="#aj"/><use transform="matrix(0.05,0,0,0.05,23.900000000000002,0)" xlink:href="#br"/><use transform="matrix(0.05,0,0,0.05,39.900000000000006,0)" xlink:href="#bs"/><use transform="matrix(0.05,0,0,0.05,50.85000000000001,0)" xlink:href="#ai"/><use transform="matrix(0.05,0,0,0.05,57.85,0)" xlink:href="#aI"/><use transform="matrix(0.05,0,0,0.05,67.85000000000001,0)" xlink:href="#ao"/></g><path fill="#333" d="M9 0v-24l116-142H16v-24h144v24L44-24h123V0H9" id="bt"/><g id="K"><use transform="matrix(0.05,0,0,0.05,0,0)" xlink:href="#ax"/><use transform="matrix(0.05,0,0,0.05,5.95,0)" xlink:href="#ay"/><use transform="matrix(0.05,0,0,0.05,15.949999999999998,0)" xlink:href="#aN"/><use transform="matrix(0.05,0,0,0.05,25.950000000000003,0)" xlink:href="#aR"/><use transform="matrix(0.05,0,0,0.05,29.899999999999995,0)" xlink:href="#aC"/><use transform="matrix(0.05,0,0,0.05,33.85,0)" xlink:href="#bt"/><use transform="matrix(0.05,0,0,0.05,42.85,0)" xlink:href="#aN"/><use transform="matrix(0.05,0,0,0.05,52.85,0)" xlink:href="#at"/></g><path fill="#333" d="M145-31C134-9 116 4 85 4 32 4 16-35 15-94c0-59 17-99 70-100 32-1 48 14 60 33 0-11-1-24 2-32h30l-1 268h-32zM93-21c41 0 51-33 51-76s-8-73-50-73c-40 0-46 35-46 75s5 74 45 74" id="bu"/><g id="L"><use transform="matrix(0.05,0,0,0.05,0,0)" xlink:href="#bu"/><use transform="matrix(0.05,0,0,0.05,10,0)" xlink:href="#aO"/><use transform="matrix(0.05,0,0,0.05,20,0)" xlink:href="#ay"/></g><g id="M"><use transform="matrix(0.05,0,0,0.05,0,0)" xlink:href="#aA"/><use transform="matrix(0.05,0,0,0.05,9,0)" xlink:href="#ay"/></g><g id="N"><use transform="matrix(0.05,0,0,0.05,0,0)" xlink:href="#aB"/><use transform="matrix(0.05,0,0,0.05,9,0)" xlink:href="#au"/><use transform="matrix(0.05,0,0,0.05,19,0)" xlink:href="#av"/><use transform="matrix(0.05,0,0,0.05,33.95,0)" xlink:href="#aD"/><use transform="matrix(0.05,0,0,0.05,43.95,0)" xlink:href="#au"/><use transform="matrix(0.05,0,0,0.05,53.95,0)" xlink:href="#at"/><use transform="matrix(0.05,0,0,0.05,63.95,0)" xlink:href="#ay"/><use transform="matrix(0.05,0,0,0.05,73.95,0)" xlink:href="#at"/></g><g id="O"><use transform="matrix(0.05,0,0,0.05,0,0)" xlink:href="#az"/><use transform="matrix(0.05,0,0,0.05,10,0)" xlink:href="#ay"/></g><use transform="matrix(0.05,0,0,0.05,0,0)" xlink:href="#bq" id="P"/><use transform="matrix(0.05,0,0,0.05,0,0)" xlink:href="#bp" id="Q"/><use transform="matrix(0.05,0,0,0.05,0,0)" xlink:href="#bo" id="R"/><use transform="matrix(0.05,0,0,0.05,0,0)" xlink:href="#bq" id="S"/><use transform="matrix(0.05,0,0,0.05,0,0)" xlink:href="#bp" id="T"/><use transform="matrix(0.05,0,0,0.05,0,0)" xlink:href="#bo" id="U"/><path fill="#333" d="M127-220V0H93v-220H8v-28h204v28h-85" id="bv"/><g id="V"><use transform="matrix(0.05,0,0,0.05,0,0)" xlink:href="#bv"/><use transform="matrix(0.05,0,0,0.05,8.950000000000001,0)" xlink:href="#ay"/><use transform="matrix(0.05,0,0,0.05,18.950000000000003,0)" xlink:href="#aR"/><use transform="matrix(0.05,0,0,0.05,22.900000000000002,0)" xlink:href="#bl"/><use transform="matrix(0.05,0,0,0.05,32.900000000000006,0)" xlink:href="#bm"/><use transform="matrix(0.05,0,0,0.05,37.900000000000006,0)" xlink:href="#au"/><use transform="matrix(0.05,0,0,0.05,47.900000000000006,0)" xlink:href="#at"/><use transform="matrix(0.05,0,0,0.05,57.900000000000006,0)" xlink:href="#au"/></g><g id="W"><use transform="matrix(0.05,0,0,0.05,0,0)" xlink:href="#bo"/><use transform="matrix(0.05,0,0,0.05,12.950000000000001,0)" xlink:href="#au"/><use transform="matrix(0.05,0,0,0.05,22.950000000000003,0)" xlink:href="#av"/><use transform="matrix(0.05,0,0,0.05,37.900000000000006,0)" xlink:href="#aw"/><use transform="matrix(0.05,0,0,0.05,47.900000000000006,0)" xlink:href="#ax"/><use transform="matrix(0.05,0,0,0.05,53.85,0)" xlink:href="#ay"/></g><g id="X"><use transform="matrix(0.05,0,0,0.05,0,0)" xlink:href="#aQ"/><use transform="matrix(0.05,0,0,0.05,12.950000000000001,0)" xlink:href="#au"/><use transform="matrix(0.05,0,0,0.05,22.950000000000003,0)" xlink:href="#ax"/><use transform="matrix(0.05,0,0,0.05,28.900000000000002,0)" xlink:href="#ax"/><use transform="matrix(0.05,0,0,0.05,34.85,0)" xlink:href="#ay"/><use transform="matrix(0.05,0,0,0.05,44.85,0)" xlink:href="#au"/></g><g id="Y"><use transform="matrix(0.05,0,0,0.05,0,0)" xlink:href="#aJ"/><use transform="matrix(0.05,0,0,0.05,5,0)" xlink:href="#aK"/><use transform="matrix(0.05,0,0,0.05,17.950000000000003,0)" xlink:href="#aQ"/><use transform="matrix(0.05,0,0,0.05,30.900000000000006,0)" xlink:href="#aR"/><use transform="matrix(0.05,0,0,0.05,34.85000000000001,0)" xlink:href="#aC"/><use transform="matrix(0.05,0,0,0.05,38.80000000000001,0)" xlink:href="#ay"/><use transform="matrix(0.05,0,0,0.05,48.80000000000001,0)" xlink:href="#at"/><use transform="matrix(0.05,0,0,0.05,58.80000000000001,0)" xlink:href="#aM"/><use transform="matrix(0.05,0,0,0.05,63.80000000000001,0)" xlink:href="#ay"/><path fill="#333" d="M-.9 1.25h75.6v1.32H-.9z"/></g><g id="Z"><use transform="matrix(0.05,0,0,0.05,0,0)" xlink:href="#aQ"/><use transform="matrix(0.05,0,0,0.05,12.950000000000001,0)" xlink:href="#aN"/><use transform="matrix(0.05,0,0,0.05,22.950000000000003,0)" xlink:href="#at"/><use transform="matrix(0.05,0,0,0.05,32.95,0)" xlink:href="#aM"/><use transform="matrix(0.05,0,0,0.05,37.95,0)" xlink:href="#aC"/><use transform="matrix(0.05,0,0,0.05,41.900000000000006,0)" xlink:href="#az"/><use transform="matrix(0.05,0,0,0.05,51.900000000000006,0)" xlink:href="#aN"/><use transform="matrix(0.05,0,0,0.05,61.900000000000006,0)" xlink:href="#az"/></g><g id="aa"><use transform="matrix(0.05,0,0,0.05,0,0)" xlink:href="#aP"/><use transform="matrix(0.05,0,0,0.05,10.950000000000001,0)" xlink:href="#ay"/><use transform="matrix(0.05,0,0,0.05,20.950000000000003,0)" xlink:href="#aB"/><use transform="matrix(0.05,0,0,0.05,29.950000000000003,0)" xlink:href="#aS"/><use transform="matrix(0.05,0,0,0.05,39.95,0)" xlink:href="#aN"/></g><g id="ab"><use transform="matrix(0.05,0,0,0.05,0,0)" xlink:href="#aJ"/><use transform="matrix(0.05,0,0,0.05,5,0)" xlink:href="#aK"/><use transform="matrix(0.05,0,0,0.05,17.950000000000003,0)" xlink:href="#aQ"/><use transform="matrix(0.05,0,0,0.05,30.900000000000006,0)" xlink:href="#au"/><use transform="matrix(0.05,0,0,0.05,40.900000000000006,0)" xlink:href="#av"/><use transform="matrix(0.05,0,0,0.05,55.85,0)" xlink:href="#aD"/><use transform="matrix(0.05,0,0,0.05,65.85000000000001,0)" xlink:href="#ax"/><use transform="matrix(0.05,0,0,0.05,71.80000000000001,0)" xlink:href="#aN"/><path fill="#333" d="M-.9 1.25h83.6v1.32H-.9z"/><path d="M80.73 1.48h2.13v1.56h-2.13z"/></g><g id="ac"><use transform="matrix(0.05,0,0,0.05,0,0)" xlink:href="#aK"/><use transform="matrix(0.05,0,0,0.05,12.950000000000001,0)" xlink:href="#ay"/><use transform="matrix(0.05,0,0,0.05,22.950000000000003,0)" xlink:href="#aA"/><use transform="matrix(0.05,0,0,0.05,31.950000000000003,0)" xlink:href="#aB"/><use transform="matrix(0.05,0,0,0.05,40.95,0)" xlink:href="#ax"/><use transform="matrix(0.05,0,0,0.05,46.900000000000006,0)" xlink:href="#aC"/><use transform="matrix(0.05,0,0,0.05,50.85000000000001,0)" xlink:href="#aD"/><use transform="matrix(0.05,0,0,0.05,60.85,0)" xlink:href="#aB"/><use transform="matrix(0.05,0,0,0.05,69.85000000000001,0)" xlink:href="#aC"/><use transform="matrix(0.05,0,0,0.05,73.80000000000001,0)" xlink:href="#aE"/><use transform="matrix(0.05,0,0,0.05,83.80000000000001,0)" xlink:href="#at"/></g><g id="ad"><use transform="matrix(0.05,0,0,0.05,0,0)" xlink:href="#as"/><use transform="matrix(0.05,0,0,0.05,12,0)" xlink:href="#ax"/><use transform="matrix(0.05,0,0,0.05,17.95,0)" xlink:href="#ay"/><use transform="matrix(0.05,0,0,0.05,27.950000000000003,0)" xlink:href="#aB"/><use transform="matrix(0.05,0,0,0.05,36.95,0)" xlink:href="#aC"/><use transform="matrix(0.05,0,0,0.05,40.900000000000006,0)" xlink:href="#au"/></g><g id="ae"><use transform="matrix(0.05,0,0,0.05,0,0)" xlink:href="#ap"/><use transform="matrix(0.05,0,0,0.05,12,0)" xlink:href="#aq"/><use transform="matrix(0.05,0,0,0.05,24,0)" xlink:href="#ar"/><path fill="#333" d="M-.9 1.25h38.75v1.32H-.9z"/></g><path fill="#333" d="M205 0l-28-72H64L36 0H1l101-248h38L239 0h-34zm-38-99l-47-123c-12 45-31 82-46 123h93" id="bw"/><g id="af"><use transform="matrix(0.05,0,0,0.05,0,0)" xlink:href="#bw"/><use transform="matrix(0.05,0,0,0.05,12,0)" xlink:href="#aD"/><use transform="matrix(0.05,0,0,0.05,22,0)" xlink:href="#ay"/><use transform="matrix(0.05,0,0,0.05,32,0)" xlink:href="#aR"/><use transform="matrix(0.05,0,0,0.05,35.95,0)" xlink:href="#aR"/><use transform="matrix(0.05,0,0,0.05,39.900000000000006,0)" xlink:href="#aC"/><use transform="matrix(0.05,0,0,0.05,43.85000000000001,0)" xlink:href="#az"/><use transform="matrix(0.05,0,0,0.05,53.85,0)" xlink:href="#au"/></g><g id="ag"><use transform="matrix(0.05,0,0,0.05,0,0)" xlink:href="#aK"/><use transform="matrix(0.05,0,0,0.05,12.950000000000001,0)" xlink:href="#aC"/><use transform="matrix(0.05,0,0,0.05,16.900000000000002,0)" xlink:href="#ax"/><use transform="matrix(0.05,0,0,0.05,22.85,0)" xlink:href="#ay"/><use transform="matrix(0.05,0,0,0.05,32.85,0)" xlink:href="#aB"/><use transform="matrix(0.05,0,0,0.05,41.85,0)" xlink:href="#aB"/><use transform="matrix(0.05,0,0,0.05,50.85,0)" xlink:href="#aC"/><use transform="matrix(0.05,0,0,0.05,54.800000000000004,0)" xlink:href="#aE"/><use transform="matrix(0.05,0,0,0.05,64.80000000000001,0)" xlink:href="#at"/></g></defs></g></svg>